<svg width="21" height="19" viewBox="0 0 21 19" fill="none" xmlns="http://www.w3.org/2000/svg">
<path d="M9.05 17.7L10.5 19L11.95 17.7C13.6333 16.1834 15.025 14.875 16.125 13.775C17.225 12.675 18.1 11.6874 18.75 10.812C19.4 9.93736 19.8543 9.13336 20.113 8.40002C20.371 7.66669 20.5 6.91669 20.5 6.15002C20.5 4.58336 19.975 3.27502 18.925 2.22502C17.875 1.17502 16.5667 0.650024 15 0.650024C14.1333 0.650024 13.3083 0.833358 12.525 1.20002C11.7417 1.56669 11.0667 2.08336 10.5 2.75002C9.93333 2.08336 9.25833 1.56669 8.475 1.20002C7.69167 0.833358 6.86667 0.650024 6 0.650024C4.43333 0.650024 3.125 1.17502 2.075 2.22502C1.025 3.27502 0.5 4.58336 0.5 6.15002C0.5 6.91669 0.629333 7.66669 0.888 8.40002C1.146 9.13336 1.6 9.93736 2.25 10.812C2.9 11.6874 3.775 12.675 4.875 13.775C5.975 14.875 7.36667 16.1834 9.05 17.7Z" fill="#5631E8"/>
</svg>
