<svg width="20" height="19" viewBox="0 0 20 19" fill="none" xmlns="http://www.w3.org/2000/svg">
<path d="M8.55 17.7L10 19L11.45 17.7C13.1333 16.1834 14.525 14.875 15.625 13.775C16.725 12.675 17.6 11.6874 18.25 10.812C18.9 9.93736 19.3543 9.13336 19.613 8.40002C19.871 7.66669 20 6.91669 20 6.15002C20 4.58336 19.475 3.27502 18.425 2.22502C17.375 1.17502 16.0667 0.650024 14.5 0.650024C13.6333 0.650024 12.8083 0.833358 12.025 1.20002C11.2417 1.56669 10.5667 2.08336 10 2.75002C9.43333 2.08336 8.75833 1.56669 7.975 1.20002C7.19167 0.833358 6.36667 0.650024 5.5 0.650024C3.93333 0.650024 2.625 1.17502 1.575 2.22502C0.525 3.27502 0 4.58336 0 6.15002C0 6.91669 0.129333 7.66669 0.388 8.40002C0.646 9.13336 1.1 9.93736 1.75 10.812C2.4 11.6874 3.275 12.675 4.375 13.775C5.475 14.875 6.86667 16.1834 8.55 17.7Z" fill="#FF4F68"/>
</svg>
