<svg width="21" height="20" viewBox="0 0 21 20" fill="none" xmlns="http://www.w3.org/2000/svg">
<path d="M14.374 11H20.4506C19.9489 16.0533 15.6854 20 10.5 20C5.31465 20 1.0511 16.0533 0.549377 11H6.62602C7.07006 12.7252 8.63616 14 10.5 14C12.3638 14 13.9299 12.7252 14.374 11Z" fill="#5631E8"/>
<path d="M10.5 0C15.6854 0 19.9489 3.94668 20.4506 9H14.374C13.9299 7.27477 12.3638 6 10.5 6C8.63616 6 7.07006 7.27477 6.62602 9H0.549377C1.0511 3.94668 5.31465 0 10.5 0Z" fill="#5631E8"/>
<path d="M10.5 12C11.6046 12 12.5 11.1046 12.5 10C12.5 8.89543 11.6046 8 10.5 8C9.39543 8 8.5 8.89543 8.5 10C8.5 11.1046 9.39543 12 10.5 12Z" fill="#5631E8"/>
</svg>
