<svg width="20" height="19" viewBox="0 0 20 19" fill="none" xmlns="http://www.w3.org/2000/svg">
<path d="M10 19L8.55 17.7C6.86667 16.1834 5.475 14.875 4.375 13.775C3.275 12.675 2.4 11.6874 1.75 10.812C1.1 9.93736 0.646 9.13336 0.388 8.40002C0.129333 7.66669 0 6.91669 0 6.15002C0 4.58336 0.525 3.27502 1.575 2.22502C2.625 1.17502 3.93333 0.650024 5.5 0.650024C6.36667 0.650024 7.19167 0.833358 7.975 1.20002C8.75833 1.56669 9.43333 2.08336 10 2.75002C10.5667 2.08336 11.2417 1.56669 12.025 1.20002C12.8083 0.833358 13.6333 0.650024 14.5 0.650024C16.0667 0.650024 17.375 1.17502 18.425 2.22502C19.475 3.27502 20 4.58336 20 6.15002C20 6.91669 19.871 7.66669 19.613 8.40002C19.3543 9.13336 18.9 9.93736 18.25 10.812C17.6 11.6874 16.725 12.675 15.625 13.775C14.525 14.875 13.1333 16.1834 11.45 17.7L10 19ZM10 16.3C11.6 14.8667 12.9167 13.6374 13.95 12.612C14.9833 11.5874 15.8 10.696 16.4 9.93802C17 9.17936 17.4167 8.50402 17.65 7.91202C17.8833 7.32069 18 6.73336 18 6.15002C18 5.15002 17.6667 4.31669 17 3.65002C16.3333 2.98336 15.5 2.65002 14.5 2.65002C13.7167 2.65002 12.9917 2.87069 12.325 3.31202C11.6583 3.75402 11.2 4.31669 10.95 5.00002H9.05C8.8 4.31669 8.34167 3.75402 7.675 3.31202C7.00833 2.87069 6.28333 2.65002 5.5 2.65002C4.5 2.65002 3.66667 2.98336 3 3.65002C2.33333 4.31669 2 5.15002 2 6.15002C2 6.73336 2.11667 7.32069 2.35 7.91202C2.58333 8.50402 3 9.17936 3.6 9.93802C4.2 10.696 5.01667 11.5874 6.05 12.612C7.08333 13.6374 8.4 14.8667 10 16.3Z" fill="#0E0940"/>
</svg>
