<svg width="21" height="20" viewBox="0 0 21 20" fill="none" xmlns="http://www.w3.org/2000/svg">
<path fill-rule="evenodd" clip-rule="evenodd" d="M20.5 10C20.5 15.5228 16.0228 20 10.5 20C4.97715 20 0.5 15.5228 0.5 10C0.5 4.47715 4.97715 0 10.5 0C16.0228 0 20.5 4.47715 20.5 10ZM10.5 2C14.5796 2 17.946 5.05369 18.4381 9H14.374C13.9299 7.27477 12.3638 6 10.5 6C8.63616 6 7.07006 7.27477 6.62602 9H2.56189C3.05399 5.05369 6.42038 2 10.5 2ZM2.56189 11C3.05399 14.9463 6.42038 18 10.5 18C14.5796 18 17.946 14.9463 18.4381 11H14.374C13.9299 12.7252 12.3638 14 10.5 14C8.63616 14 7.07006 12.7252 6.62602 11H2.56189ZM8.5 10C8.5 11.1046 9.39543 12 10.5 12C11.6046 12 12.5 11.1046 12.5 10C12.5 8.89543 11.6046 8 10.5 8C9.39543 8 8.5 8.89543 8.5 10Z" fill="#0E0940"/>
</svg>
